<?xml version="1.0" encoding="utf-8"?>
<!-- License: MIT. Made by joypixels: https://github.com/joypixels/emojione -->
<svg width="800px" height="800px" viewBox="0 0 64 64" xmlns="http://www.w3.org/2000/svg" xmlns:xlink="http://www.w3.org/1999/xlink" aria-hidden="true" role="img" class="iconify iconify--emojione" preserveAspectRatio="xMidYMid meet">
<defs>
    <linearGradient id="grad1" x1="0%" x2="100%" y1="0%" y2="0%">
      <stop offset="0%" stop-color="#ffffff" />
      <stop offset="50%" stop-color="#ffffff" />
      <stop offset="100%" stop-color="#b7b7b7" />
    </linearGradient>
  </defs>
<path d="M62 52c0 5.5-4.5 10-10 10H12C6.5 62 2 57.5 2 52V12C2 6.5 6.5 2 12 2h40c5.5 0 10 4.5 10 10v40z" fill="#545454"></path><path d="M57 45.7c0 4.6-3.7 8.3-8.3 8.3H15.3C10.7 54 7 50.3 7 45.7V12.3C7 7.7 10.7 4 15.3 4h33.3c4.6 0 8.3 3.7 8.3 8.3v33.4z" fill="url(#grad1)"></path><text x="17" y="23" fill="#545454" font-size="14">Type</text><text x="11" y="44" fill="#545454" font-size="14">Trainer</text></svg>